<svg width="26" height="26" viewBox="0 0 26 26" fill="none" xmlns="http://www.w3.org/2000/svg">
<path d="M19.0544 8.5438C19.0544 6.88201 18.3942 5.28828 17.2191 4.11322C16.0441 2.93816 14.4504 2.27802 12.7886 2.27802C11.1268 2.27802 9.53305 2.93816 8.35799 4.11322C7.18293 5.28828 6.52278 6.88201 6.52278 8.5438C6.52278 15.8539 3.38989 17.9425 3.38989 17.9425H22.1872C22.1872 17.9425 19.0544 15.8539 19.0544 8.5438Z" stroke="#03063A" stroke-width="2.08859" stroke-linecap="round" stroke-linejoin="round"/>
<path d="M14.595 22.1196C14.4114 22.4361 14.1478 22.6988 13.8308 22.8814C13.5137 23.064 13.1542 23.1602 12.7883 23.1602C12.4224 23.1602 12.0629 23.064 11.7459 22.8814C11.4288 22.6988 11.1653 22.4361 10.9817 22.1196" stroke="#03063A" stroke-width="1.87371" stroke-linecap="round" stroke-linejoin="round"/>
</svg>
