<svg width="24" height="24" viewBox="0 0 24 24" fill="none" xmlns="http://www.w3.org/2000/svg">
<path fill-rule="evenodd" clip-rule="evenodd" d="M11.9997 1.70575C9.40072 1.70575 7.2939 3.81277 7.2939 6.4118C7.2939 9.01082 9.40072 11.1176 11.9997 11.1176C14.5988 11.1176 16.7056 9.01082 16.7056 6.4118C16.7056 3.81277 14.5988 1.70575 11.9997 1.70575ZM6.11719 6.4118C6.11719 3.163 8.75085 0.529236 11.9997 0.529236C15.2486 0.529236 17.8823 3.1629 17.8823 6.4118C17.8823 9.66039 15.2486 12.2939 11.9997 12.2939C8.75085 12.2939 6.11719 9.66019 6.11719 6.4118Z" fill="white"/>
<path d="M21 19C21 20.1027 20.1417 21.221 18.4846 22.0931C16.8507 22.953 14.5589 23.5 12 23.5C9.44111 23.5 7.14928 22.953 5.51536 22.0931C3.85835 21.221 3 20.1027 3 19C3 17.8973 3.85835 16.779 5.51536 15.9069C7.14928 15.047 9.44111 14.5 12 14.5C14.5589 14.5 16.8507 15.047 18.4846 15.9069C20.1417 16.779 21 17.8973 21 19Z" stroke="white"/>
</svg>
