<svg width="11" height="16" viewBox="0 0 11 16" fill="none" xmlns="http://www.w3.org/2000/svg">
<path d="M3.55581 7.17941L9.97243 3.48572C10.3105 3.2898 10.5572 2.96807 10.6588 2.59081C10.7604 2.21356 10.7086 1.81142 10.5147 1.47223C10.418 1.30263 10.2887 1.15386 10.1342 1.0345C9.97969 0.915132 9.80309 0.827538 9.61458 0.776767C9.42607 0.725996 9.22936 0.713053 9.03582 0.738684C8.84228 0.764316 8.65573 0.828016 8.48693 0.926108L0.801495 5.35018C0.631897 5.44689 0.483125 5.57621 0.36376 5.73071C0.244396 5.8852 0.156801 6.06179 0.10603 6.25031C0.0552592 6.43882 0.0423166 6.63552 0.0679482 6.82906C0.0935799 7.0226 0.157279 7.20916 0.255371 7.37795L4.66022 15.1348C4.75801 15.3031 4.88805 15.4504 5.0429 15.5683C5.19774 15.6862 5.37434 15.7724 5.56257 15.822C5.75021 15.8737 5.94622 15.8878 6.13934 15.8636C6.33246 15.8394 6.51891 15.7773 6.68799 15.6809C7.02602 15.485 7.27278 15.1633 7.37438 14.786C7.47599 14.4087 7.42418 14.0066 7.23027 13.6674L3.55581 7.17941Z" fill="#03063A"/>
</svg>
