<svg width="533" height="380" viewBox="0 0 533 380" fill="none" xmlns="http://www.w3.org/2000/svg">
<path d="M456.249 179.62C459.763 198.1 449.916 215.495 434.256 218.473C418.596 221.45 403.053 208.883 399.539 190.403C396.025 171.923 405.872 154.528 421.532 151.55C437.192 148.573 452.735 161.14 456.249 179.62Z" fill="#FFD68F"/>
<path d="M390.84 193.528C399.21 210.374 394.422 229.781 380.147 236.873C365.871 243.966 347.513 236.059 339.143 219.212C330.773 202.366 335.561 182.959 349.837 175.866C364.113 168.774 382.471 176.681 390.84 193.528Z" fill="#FFD68F"/>
<path d="M343.439 246.241C356.142 254.507 360.761 269.934 353.756 280.698C346.751 291.462 330.775 293.487 318.073 285.221C305.371 276.955 300.752 261.528 307.757 250.764C314.761 240 330.737 237.975 343.439 246.241Z" fill="#FFD68F"/>
<path d="M514.464 207.919C514.747 223.573 504.223 236.458 490.958 236.698C477.692 236.938 466.709 224.442 466.426 208.788C466.143 193.134 476.667 180.249 489.932 180.009C503.197 179.769 514.181 192.265 514.464 207.919Z" fill="#FFD68F"/>
<path d="M495.04 259.285C523.563 284.581 511.088 336.394 481.57 355.559C452.052 374.723 400.228 364.381 388.147 328.686C377.303 288.289 372.1 251.577 401.617 232.412C431.135 213.248 460.941 229.045 495.04 259.285Z" fill="#FFD68F"/>
<path d="M170.161 154.433C157.208 152.824 147.813 142.621 149.177 131.645C150.54 120.668 162.146 113.074 175.099 114.683C188.052 116.293 197.448 126.495 196.084 137.472C194.721 148.448 183.115 156.042 170.161 154.433Z" fill="#FFD68F"/>
<path d="M174.885 108.274C161.978 110.219 150.179 102.93 148.53 91.993C146.881 81.0557 156.008 70.612 168.915 68.6664C181.821 66.7207 193.621 74.0098 195.27 84.947C196.919 95.8843 187.792 106.328 174.885 108.274Z" fill="#FFD68F"/>
<path d="M150.149 65.7562C141.988 72.3881 130.816 72.1582 125.196 65.2426C119.576 58.327 121.636 47.3446 129.797 40.7127C137.958 34.0808 149.13 34.3107 154.75 41.2263C160.37 48.1419 158.31 59.1243 150.149 65.7562Z" fill="#FFD68F"/>
<path d="M139.091 186.865C128.691 183.723 122.419 174.032 125.081 165.22C127.744 156.407 138.333 151.81 148.732 154.952C159.132 158.094 165.404 167.785 162.742 176.597C160.079 185.41 149.49 190.007 139.091 186.865Z" fill="#FFD68F"/>
<path d="M109.294 163.113C86.5217 176.573 54.9523 157.314 48.5716 133.743C42.1908 110.172 60.0424 78.1416 86.1877 77.753C115.175 79.1807 140.53 83.5513 146.911 107.123C153.291 130.694 136.519 147.021 109.294 163.113Z" fill="#FFD68F"/>
</svg>
