<svg width="22" height="22" viewBox="0 0 22 22" fill="none" xmlns="http://www.w3.org/2000/svg">
<path d="M21.0935 19.3782L17.2191 15.5352C18.723 13.6601 19.4513 11.28 19.2542 8.88437C19.0572 6.48876 17.9498 4.25968 16.1597 2.6555C14.3696 1.05131 12.0329 0.193951 9.63012 0.2597C7.22731 0.325449 4.94101 1.30931 3.24134 3.00899C1.54166 4.70867 0.557795 6.99497 0.492046 9.39777C0.426296 11.8006 1.28366 14.1373 2.88785 15.9273C4.49203 17.7174 6.7211 18.8249 9.11672 19.0219C11.5123 19.219 13.8924 18.4907 15.7675 16.9868L19.6106 20.8298C19.7076 20.9277 19.8231 21.0053 19.9504 21.0584C20.0776 21.1114 20.2141 21.1387 20.352 21.1387C20.4899 21.1387 20.6264 21.1114 20.7536 21.0584C20.8809 21.0053 20.9964 20.9277 21.0935 20.8298C21.2817 20.6351 21.3869 20.3748 21.3869 20.104C21.3869 19.8332 21.2817 19.5729 21.0935 19.3782V19.3782ZM9.90903 16.9868C8.46323 16.9868 7.0499 16.558 5.84776 15.7548C4.64563 14.9516 3.70868 13.8099 3.15539 12.4741C2.60211 11.1384 2.45735 9.66857 2.73941 8.25056C3.02147 6.83254 3.71769 5.53001 4.74002 4.50767C5.76235 3.48534 7.06489 2.78912 8.4829 2.50706C9.90092 2.225 11.3707 2.36976 12.7065 2.92305C14.0422 3.47633 15.1839 4.41328 15.9871 5.61542C16.7904 6.81756 17.2191 8.23088 17.2191 9.67668C17.2191 11.6154 16.4489 13.4748 15.078 14.8457C13.7071 16.2166 11.8478 16.9868 9.90903 16.9868V16.9868Z" fill="#03063A"/>
</svg>
